<mxfile host="app.diagrams.net" modified="2021-10-26T07:46:45.157Z" agent="5.0 (Windows NT 10.0; Win64; x64) AppleWebKit/537.36 (KHTML, like Gecko) Chrome/92.0.4515.131 Safari/537.36" etag="9AFZYhDXyFC72XHplD9G" version="15.5.7" type="github">
  <diagram id="O6qlRcYxYnAS0MhGZkGk" name="Page-1">
    <mxGraphModel dx="2370" dy="1230" grid="1" gridSize="10" guides="1" tooltips="1" connect="1" arrows="1" fold="1" page="1" pageScale="1" pageWidth="827" pageHeight="1169" math="0" shadow="0">
      <root>
        <mxCell id="0" />
        <mxCell id="1" parent="0" />
        <mxCell id="2Ub8YZS8O_GlRJUQyoEj-5" style="edgeStyle=orthogonalEdgeStyle;rounded=0;orthogonalLoop=1;jettySize=auto;html=1;exitX=1;exitY=0.5;exitDx=0;exitDy=0;entryX=0;entryY=0.5;entryDx=0;entryDy=0;" edge="1" parent="1" source="2Ub8YZS8O_GlRJUQyoEj-1" target="2Ub8YZS8O_GlRJUQyoEj-2">
          <mxGeometry relative="1" as="geometry" />
        </mxCell>
        <mxCell id="2Ub8YZS8O_GlRJUQyoEj-1" value="开始" style="ellipse;whiteSpace=wrap;html=1;" vertex="1" parent="1">
          <mxGeometry x="80" y="200" width="120" height="80" as="geometry" />
        </mxCell>
        <mxCell id="2Ub8YZS8O_GlRJUQyoEj-7" value="" style="edgeStyle=orthogonalEdgeStyle;rounded=0;orthogonalLoop=1;jettySize=auto;html=1;" edge="1" parent="1" source="2Ub8YZS8O_GlRJUQyoEj-2" target="2Ub8YZS8O_GlRJUQyoEj-6">
          <mxGeometry relative="1" as="geometry" />
        </mxCell>
        <mxCell id="2Ub8YZS8O_GlRJUQyoEj-16" style="edgeStyle=orthogonalEdgeStyle;rounded=0;orthogonalLoop=1;jettySize=auto;html=1;exitX=0.25;exitY=0;exitDx=0;exitDy=0;entryX=0.25;entryY=1;entryDx=0;entryDy=0;" edge="1" parent="1" source="2Ub8YZS8O_GlRJUQyoEj-2" target="2Ub8YZS8O_GlRJUQyoEj-10">
          <mxGeometry relative="1" as="geometry" />
        </mxCell>
        <mxCell id="2Ub8YZS8O_GlRJUQyoEj-2" value="综合处收文登记" style="rounded=0;whiteSpace=wrap;html=1;" vertex="1" parent="1">
          <mxGeometry x="240" y="200" width="120" height="80" as="geometry" />
        </mxCell>
        <mxCell id="2Ub8YZS8O_GlRJUQyoEj-9" value="办理" style="edgeStyle=orthogonalEdgeStyle;rounded=0;orthogonalLoop=1;jettySize=auto;html=1;" edge="1" parent="1" source="2Ub8YZS8O_GlRJUQyoEj-6" target="2Ub8YZS8O_GlRJUQyoEj-8">
          <mxGeometry relative="1" as="geometry" />
        </mxCell>
        <mxCell id="2Ub8YZS8O_GlRJUQyoEj-6" value="是否需办理&lt;br&gt;（传阅/办理）" style="rhombus;whiteSpace=wrap;html=1;rounded=0;" vertex="1" parent="1">
          <mxGeometry x="400" y="200" width="120" height="80" as="geometry" />
        </mxCell>
        <mxCell id="2Ub8YZS8O_GlRJUQyoEj-14" value="" style="edgeStyle=orthogonalEdgeStyle;rounded=0;orthogonalLoop=1;jettySize=auto;html=1;" edge="1" parent="1" source="2Ub8YZS8O_GlRJUQyoEj-8" target="2Ub8YZS8O_GlRJUQyoEj-13">
          <mxGeometry relative="1" as="geometry" />
        </mxCell>
        <mxCell id="2Ub8YZS8O_GlRJUQyoEj-8" value="主办处室负责人&lt;br&gt;分件" style="whiteSpace=wrap;html=1;rounded=0;" vertex="1" parent="1">
          <mxGeometry x="600" y="200" width="120" height="80" as="geometry" />
        </mxCell>
        <mxCell id="2Ub8YZS8O_GlRJUQyoEj-12" style="edgeStyle=orthogonalEdgeStyle;rounded=0;orthogonalLoop=1;jettySize=auto;html=1;exitX=1;exitY=0.5;exitDx=0;exitDy=0;" edge="1" parent="1" source="2Ub8YZS8O_GlRJUQyoEj-10" target="2Ub8YZS8O_GlRJUQyoEj-8">
          <mxGeometry relative="1" as="geometry" />
        </mxCell>
        <mxCell id="2Ub8YZS8O_GlRJUQyoEj-15" style="edgeStyle=orthogonalEdgeStyle;rounded=0;orthogonalLoop=1;jettySize=auto;html=1;exitX=1;exitY=0.5;exitDx=0;exitDy=0;" edge="1" parent="1" source="2Ub8YZS8O_GlRJUQyoEj-10" target="2Ub8YZS8O_GlRJUQyoEj-13">
          <mxGeometry relative="1" as="geometry" />
        </mxCell>
        <mxCell id="2Ub8YZS8O_GlRJUQyoEj-17" style="edgeStyle=orthogonalEdgeStyle;rounded=0;orthogonalLoop=1;jettySize=auto;html=1;exitX=0.75;exitY=1;exitDx=0;exitDy=0;entryX=0.75;entryY=0;entryDx=0;entryDy=0;" edge="1" parent="1" source="2Ub8YZS8O_GlRJUQyoEj-10" target="2Ub8YZS8O_GlRJUQyoEj-2">
          <mxGeometry relative="1" as="geometry" />
        </mxCell>
        <mxCell id="2Ub8YZS8O_GlRJUQyoEj-10" value="局领导批示" style="rounded=0;whiteSpace=wrap;html=1;" vertex="1" parent="1">
          <mxGeometry x="240" y="80" width="120" height="80" as="geometry" />
        </mxCell>
        <mxCell id="2Ub8YZS8O_GlRJUQyoEj-19" value="" style="edgeStyle=orthogonalEdgeStyle;rounded=0;orthogonalLoop=1;jettySize=auto;html=1;" edge="1" parent="1" source="2Ub8YZS8O_GlRJUQyoEj-13" target="2Ub8YZS8O_GlRJUQyoEj-18">
          <mxGeometry relative="1" as="geometry" />
        </mxCell>
        <mxCell id="2Ub8YZS8O_GlRJUQyoEj-13" value="主办人&lt;br&gt;办理" style="whiteSpace=wrap;html=1;rounded=0;" vertex="1" parent="1">
          <mxGeometry x="760" y="200" width="120" height="80" as="geometry" />
        </mxCell>
        <mxCell id="2Ub8YZS8O_GlRJUQyoEj-23" style="edgeStyle=orthogonalEdgeStyle;rounded=0;orthogonalLoop=1;jettySize=auto;html=1;exitX=0.5;exitY=1;exitDx=0;exitDy=0;entryX=0.5;entryY=0.125;entryDx=0;entryDy=0;entryPerimeter=0;" edge="1" parent="1" source="2Ub8YZS8O_GlRJUQyoEj-18" target="2Ub8YZS8O_GlRJUQyoEj-20">
          <mxGeometry relative="1" as="geometry">
            <Array as="points">
              <mxPoint x="980" y="440" />
              <mxPoint x="140" y="440" />
            </Array>
          </mxGeometry>
        </mxCell>
        <mxCell id="2Ub8YZS8O_GlRJUQyoEj-24" value="是，点击【启动发文】按钮，转到发文流程进行签批" style="edgeLabel;html=1;align=center;verticalAlign=middle;resizable=0;points=[];" vertex="1" connectable="0" parent="2Ub8YZS8O_GlRJUQyoEj-23">
          <mxGeometry x="0.0686" y="2" relative="1" as="geometry">
            <mxPoint x="401" y="-142" as="offset" />
          </mxGeometry>
        </mxCell>
        <mxCell id="2Ub8YZS8O_GlRJUQyoEj-26" value="" style="edgeStyle=orthogonalEdgeStyle;rounded=0;orthogonalLoop=1;jettySize=auto;html=1;" edge="1" parent="1" source="2Ub8YZS8O_GlRJUQyoEj-18" target="2Ub8YZS8O_GlRJUQyoEj-25">
          <mxGeometry relative="1" as="geometry" />
        </mxCell>
        <mxCell id="2Ub8YZS8O_GlRJUQyoEj-18" value="是否需要启动&lt;br&gt;正式发文回复" style="rhombus;whiteSpace=wrap;html=1;rounded=0;" vertex="1" parent="1">
          <mxGeometry x="920" y="200" width="120" height="80" as="geometry" />
        </mxCell>
        <mxCell id="2Ub8YZS8O_GlRJUQyoEj-22" value="" style="edgeStyle=orthogonalEdgeStyle;rounded=0;orthogonalLoop=1;jettySize=auto;html=1;" edge="1" parent="1" source="2Ub8YZS8O_GlRJUQyoEj-20" target="2Ub8YZS8O_GlRJUQyoEj-21">
          <mxGeometry relative="1" as="geometry" />
        </mxCell>
        <mxCell id="2Ub8YZS8O_GlRJUQyoEj-20" value="开始" style="ellipse;whiteSpace=wrap;html=1;" vertex="1" parent="1">
          <mxGeometry x="80" y="480" width="120" height="80" as="geometry" />
        </mxCell>
        <mxCell id="2Ub8YZS8O_GlRJUQyoEj-21" value="拟稿人拟稿" style="whiteSpace=wrap;html=1;" vertex="1" parent="1">
          <mxGeometry x="240" y="480" width="120" height="80" as="geometry" />
        </mxCell>
        <mxCell id="2Ub8YZS8O_GlRJUQyoEj-25" value="校稿流程&lt;br&gt;主办处室其他人员校稿&lt;br&gt;法务审核校稿" style="whiteSpace=wrap;html=1;rounded=0;" vertex="1" parent="1">
          <mxGeometry x="1120" y="200" width="160" height="80" as="geometry" />
        </mxCell>
      </root>
    </mxGraphModel>
  </diagram>
</mxfile>
